<svg width="32" height="32" viewBox="0 0 32 32" fill="none" xmlns="http://www.w3.org/2000/svg">
  <defs>
    <linearGradient id="logoGrad" x1="0" y1="0" x2="32" y2="32" gradientUnits="userSpaceOnUse">
      <stop stopColor="#1D4ED8" />
      <stop offset="1" stopColor="#60A5FA" />
    </linearGradient>
  </defs>
  <path d="M16 7C11.0294 7 7 11.0294 7 16C7 20.9706 11.0294 25 16 25C20.9706 25 25 20.9706 25 16C25 11.0294 20.9706 7 16 7ZM16 22C12.6863 22 10 19.3137 10 16C10 12.6863 12.6863 10 16 10C19.3137 10 22 12.6863 22 16C22 19.3137 19.3137 22 16 22Z" fill="url(#logoGrad)"/>
  <circle cx="16" cy="16" r="3" fill="url(#logoGrad)"/>
  <path d="M12.5 12.5L10.5 10.5M19.5 12.5L21.5 10.5M12.5 19.5L10.5 21.5M19.5 19.5L21.5 21.5" stroke="url(#logoGrad)" strokeWidth="2" strokeLinecap="round"/>
</svg>